<?xml version="1.0" encoding="UTF-8" standalone="no"?>
<svg
   xmlns:dc="http://purl.org/dc/elements/1.1/"
   xmlns:cc="http://creativecommons.org/ns#"
   xmlns:rdf="http://www.w3.org/1999/02/22-rdf-syntax-ns#"
   xmlns:svg="http://www.w3.org/2000/svg"
   xmlns="http://www.w3.org/2000/svg"
   viewBox="0 0 1128.1121 1159.6573"
   height="1159.6573"
   width="1128.1121"
   xml:space="preserve"
   id="svg2"
   version="1.1"><metadata
     id="metadata8"><rdf:RDF><cc:Work
         rdf:about=""><dc:format>image/svg+xml</dc:format><dc:type
           rdf:resource="http://purl.org/dc/dcmitype/StillImage" /></cc:Work></rdf:RDF></metadata><defs
     id="defs6"><clipPath
       id="clipPath18"
       clipPathUnits="userSpaceOnUse"><path
         id="path16"
         d="M 0,869.743 H 846.084 V 0 H 0 Z" /></clipPath><linearGradient
       id="linearGradient124"
       spreadMethod="pad"
       gradientTransform="matrix(-266.69073,-245.63617,-245.63617,266.69073,746.76916,390.00919)"
       gradientUnits="userSpaceOnUse"
       y2="0"
       x2="1"
       y1="0"
       x1="0"><stop
         id="stop116"
         offset="0"
         style="stop-opacity:1;stop-color:#85f0f4" /><stop
         id="stop118"
         offset="0.00606061"
         style="stop-opacity:1;stop-color:#85f0f4" /><stop
         id="stop120"
         offset="0.139394"
         style="stop-opacity:1;stop-color:#1fd1e5" /><stop
         id="stop122"
         offset="1"
         style="stop-opacity:1;stop-color:#0066b3" /></linearGradient><linearGradient
       id="linearGradient150"
       spreadMethod="pad"
       gradientTransform="matrix(-265.78409,-244.80109,-244.80109,265.78409,746.79919,388.03683)"
       gradientUnits="userSpaceOnUse"
       y2="0"
       x2="1"
       y1="0"
       x1="0"><stop
         id="stop140"
         offset="0"
         style="stop-opacity:1;stop-color:#24e4eb" /><stop
         id="stop142"
         offset="0.00606061"
         style="stop-opacity:1;stop-color:#24e4eb" /><stop
         id="stop144"
         offset="0.139394"
         style="stop-opacity:1;stop-color:#1fd1e5" /><stop
         id="stop146"
         offset="0.654545"
         style="stop-opacity:1;stop-color:#0066b3" /><stop
         id="stop148"
         offset="1"
         style="stop-opacity:1;stop-color:#00214d" /></linearGradient><linearGradient
       id="linearGradient174"
       spreadMethod="pad"
       gradientTransform="matrix(-469.32675,-416.6658,-416.6658,469.32675,697.99042,569.97491)"
       gradientUnits="userSpaceOnUse"
       y2="0"
       x2="1"
       y1="0"
       x1="0"><stop
         id="stop166"
         offset="0"
         style="stop-opacity:1;stop-color:#85f0f4" /><stop
         id="stop168"
         offset="0.00606061"
         style="stop-opacity:1;stop-color:#85f0f4" /><stop
         id="stop170"
         offset="0.139394"
         style="stop-opacity:1;stop-color:#1fd1e5" /><stop
         id="stop172"
         offset="1"
         style="stop-opacity:1;stop-color:#0066b3" /></linearGradient><linearGradient
       id="linearGradient200"
       spreadMethod="pad"
       gradientTransform="matrix(-408.4668,-412.66309,-412.66309,408.4668,711.16467,592.71057)"
       gradientUnits="userSpaceOnUse"
       y2="0"
       x2="1"
       y1="0"
       x1="0"><stop
         id="stop190"
         offset="0"
         style="stop-opacity:1;stop-color:#24e4eb" /><stop
         id="stop192"
         offset="0.00606061"
         style="stop-opacity:1;stop-color:#24e4eb" /><stop
         id="stop194"
         offset="0.139394"
         style="stop-opacity:1;stop-color:#1fd1e5" /><stop
         id="stop196"
         offset="0.654545"
         style="stop-opacity:1;stop-color:#0066b3" /><stop
         id="stop198"
         offset="1"
         style="stop-opacity:1;stop-color:#00214d" /></linearGradient><linearGradient
       id="linearGradient224"
       spreadMethod="pad"
       gradientTransform="matrix(-159.44968,-154.41446,-154.41446,159.44968,349.11209,658.31177)"
       gradientUnits="userSpaceOnUse"
       y2="0"
       x2="1"
       y1="0"
       x1="0"><stop
         id="stop216"
         offset="0"
         style="stop-opacity:1;stop-color:#85f0f4" /><stop
         id="stop218"
         offset="0.00606061"
         style="stop-opacity:1;stop-color:#85f0f4" /><stop
         id="stop220"
         offset="0.139394"
         style="stop-opacity:1;stop-color:#1fd1e5" /><stop
         id="stop222"
         offset="1"
         style="stop-opacity:1;stop-color:#0066b3" /></linearGradient><linearGradient
       id="linearGradient250"
       spreadMethod="pad"
       gradientTransform="matrix(-254.74658,-312.02536,-312.02536,254.74658,399.44086,741.45062)"
       gradientUnits="userSpaceOnUse"
       y2="0"
       x2="1"
       y1="0"
       x1="0"><stop
         id="stop240"
         offset="0"
         style="stop-opacity:1;stop-color:#24e4eb" /><stop
         id="stop242"
         offset="0.00606061"
         style="stop-opacity:1;stop-color:#24e4eb" /><stop
         id="stop244"
         offset="0.139394"
         style="stop-opacity:1;stop-color:#1fd1e5" /><stop
         id="stop246"
         offset="0.654545"
         style="stop-opacity:1;stop-color:#0066b3" /><stop
         id="stop248"
         offset="1"
         style="stop-opacity:1;stop-color:#00214d" /></linearGradient><linearGradient
       id="linearGradient274"
       spreadMethod="pad"
       gradientTransform="matrix(-366.50366,-358.11081,-358.11081,366.50366,533.61493,704.29999)"
       gradientUnits="userSpaceOnUse"
       y2="0"
       x2="1"
       y1="0"
       x1="0"><stop
         id="stop266"
         offset="0"
         style="stop-opacity:1;stop-color:#85f0f4" /><stop
         id="stop268"
         offset="0.00606061"
         style="stop-opacity:1;stop-color:#85f0f4" /><stop
         id="stop270"
         offset="0.139394"
         style="stop-opacity:1;stop-color:#1fd1e5" /><stop
         id="stop272"
         offset="1"
         style="stop-opacity:1;stop-color:#0066b3" /></linearGradient><linearGradient
       id="linearGradient300"
       spreadMethod="pad"
       gradientTransform="matrix(-366.50366,-358.11081,-358.11081,366.50366,533.61493,702.29999)"
       gradientUnits="userSpaceOnUse"
       y2="0"
       x2="1"
       y1="0"
       x1="0"><stop
         id="stop290"
         offset="0"
         style="stop-opacity:1;stop-color:#24e4eb" /><stop
         id="stop292"
         offset="0.00606061"
         style="stop-opacity:1;stop-color:#24e4eb" /><stop
         id="stop294"
         offset="0.139394"
         style="stop-opacity:1;stop-color:#1fd1e5" /><stop
         id="stop296"
         offset="0.654545"
         style="stop-opacity:1;stop-color:#0066b3" /><stop
         id="stop298"
         offset="1"
         style="stop-opacity:1;stop-color:#00214d" /></linearGradient></defs><g
     transform="matrix(1.3333333,0,0,-1.3333333,0,1159.6573)"
     id="g10"><g
       id="g12"><g
         clip-path="url(#clipPath18)"
         id="g14"><g
           transform="translate(281.9087,225.5576)"
           id="g20"><path
             id="path22"
             style="fill:#134577;fill-opacity:1;fill-rule:nonzero;stroke:none"
             d="M 0,0 C 63.634,5.402 158.232,59.035 236.065,129.104 219.69,128.048 202.219,125.809 183.823,122.256 70.841,100.437 -43.848,29.438 -22.502,5.469 c 0.404,-0.382 0.806,-0.762 1.21,-1.138 1.054,-0.906 2.142,-1.831 3.27,-2.79 -1.131,1.019 -2.263,2.038 -3.392,3.062 C -16.168,1.284 -13.287,0.192 0,0" /></g><g
           transform="translate(304.0117,197.1748)"
           id="g24"><path
             id="path26"
             style="fill:#134577;fill-opacity:1;fill-rule:nonzero;stroke:none"
             d="m 0,0 c 8.482,-5.372 13.235,-7.999 22.484,-12.554 0.902,-0.432 1.831,-0.87 2.789,-1.31 C 18.588,-10.411 13.69,-7.877 9.612,-5.678 6.35,-3.808 3.113,-1.891 0,0" /></g><g
           transform="translate(287.6616,207.8887)"
           id="g28"><path
             id="path30"
             style="fill:#134577;fill-opacity:1;fill-rule:nonzero;stroke:none"
             d="M 0,0 C 0.047,-0.035 0.098,-0.066 0.147,-0.102 -4.06,3.132 -8.773,6.84 -13.464,10.634 -8.84,6.862 -4.193,3.181 0,0" /></g><g
           transform="translate(344.1304,176.8311)"
           id="g32"><path
             id="path34"
             style="fill:#134577;fill-opacity:1;fill-rule:nonzero;stroke:none"
             d="M 0,0 C 4.443,-1.851 8.905,-3.655 12.776,-5.085 12.619,-5.008 12.48,-4.928 12.329,-4.849 10.852,-4.296 9.32,-3.708 7.766,-3.105 5.255,-2.111 2.633,-1.066 0,0" /></g><g
           transform="translate(656.4243,283.8789)"
           id="g36"><path
             id="path38"
             style="fill:#134577;fill-opacity:1;fill-rule:nonzero;stroke:none"
             d="m 0,0 c 2.796,20.248 -5.935,37.191 -23.816,49.498 -23.702,-26.17 -50.91,-50.449 -78.941,-71.865 26.462,-4.658 37.966,-18.562 30.268,-35.19 -1.788,-3.866 -4.014,-7.948 -7.114,-11.859 C -51.689,-49.785 -23.954,-26.172 0,0" /></g><g
           transform="translate(709.1216,333.9668)"
           id="g40"><path
             id="path42"
             style="fill:#134577;fill-opacity:1;fill-rule:nonzero;stroke:none"
             d="m 0,0 c 2.041,5.207 4.046,10.772 5.962,16.796 1.093,3.563 2.223,7.434 3.441,11.766 0.158,0.586 0.32,1.161 0.475,1.759 0.043,0.198 0.087,0.396 0.131,0.595 C 9.903,30.505 9.798,30.098 9.69,29.687 7.101,20.95 4.124,10.992 0,0" /></g><g
           transform="translate(183.1494,353.1367)"
           id="g44"><path
             id="path46"
             style="fill:#134577;fill-opacity:1;fill-rule:nonzero;stroke:none"
             d="M 0,0 C 0.092,-0.282 0.179,-0.56 0.273,-0.845 0.175,-0.544 0.078,-0.24 -0.02,0.061 -0.012,0.04 -0.007,0.021 0,0" /></g><g
           transform="translate(194.899,321.6992)"
           id="g48"><path
             id="path50"
             style="fill:#134577;fill-opacity:1;fill-rule:nonzero;stroke:none"
             d="M 0,0 C 0.925,-2.098 1.873,-4.205 2.875,-6.341 -0.352,1.212 -3.695,9.051 -6.895,17.534 -4.605,11.363 -2.21,5.323 0,0" /></g><g
           transform="translate(217.4351,416.2989)"
           id="g52"><path
             id="path54"
             style="fill:#134577;fill-opacity:1;fill-rule:nonzero;stroke:none"
             d="M 0,0 C 71.301,17.186 151.087,72.112 202.385,129.278 96.556,108.969 -3.922,65.893 -37.879,26.16 -46.096,16.542 -46.434,11.45 -46.634,8.41 -45.448,3.388 -42.67,-8.365 0,0" /></g><g
           transform="translate(671.6841,265.9912)"
           id="g56"><path
             id="path58"
             style="fill:#134577;fill-opacity:1;fill-rule:nonzero;stroke:none"
             d="m 0,0 c 0.12,0.154 0.237,0.308 0.357,0.466 l 1.406,1.91 C 1.501,2.025 1.22,1.662 0.95,1.307 0.63,0.869 0.321,0.434 0,0" /></g><g
           transform="translate(558.2954,556.8853)"
           id="g60"><path
             id="path62"
             style="fill:#134577;fill-opacity:1;fill-rule:nonzero;stroke:none"
             d="m 0,0 c -17.105,-35.11 -46.952,-73.479 -89.428,-112.285 45.843,6.515 91.396,7.352 131.083,-0.427 23.104,31.713 40.31,64.047 48.431,94.88 C 64.11,-7.297 33.299,-1.687 0,0" /></g><g
           transform="translate(686.2642,287.4893)"
           id="g64"><path
             id="path66"
             style="fill:#134577;fill-opacity:1;fill-rule:nonzero;stroke:none"
             d="M 0,0 C 3.807,6.072 6.809,11.478 12.051,21.528 7.367,12.842 4.491,7.514 1.718,2.787 1.161,1.875 0.588,0.948 0,0" /></g><g
           transform="translate(705.1792,351.6133)"
           id="g68"><path
             id="path70"
             style="fill:#134577;fill-opacity:1;fill-rule:nonzero;stroke:none"
             d="m 0,0 c 12.774,24.256 20.956,49.464 22.53,74.817 -0.002,-0.173 -0.005,-0.344 -0.007,-0.514 -0.509,-8.602 -1.26,-19.83 -2.877,-31.941 1.56,10.159 2.695,21.322 3.04,34.713 C 21.955,100.947 15.995,120.939 5.859,137.51 3.899,108.735 -5.935,80.028 -21.198,52.286 -7.335,37.565 -0.266,19.822 0,0" /></g><g
           transform="translate(574.606,635.1651)"
           id="g72"><path
             id="path74"
             style="fill:#134577;fill-opacity:1;fill-rule:nonzero;stroke:none"
             d="M 0,0 C 27.574,-4.804 52.808,-13.131 74.056,-25.702 68.875,-9.369 59.452,5.795 45.06,19.312 41.57,22.591 36.714,26.381 32.519,29.445 31.284,30.269 30.014,31.106 28.707,31.953 9.092,43.496 -12.784,51.259 -35.857,55.922 -15.13,42.142 -3.2,22.974 0,0" /></g><g
           transform="translate(230.9761,609.0493)"
           id="g76"><path
             id="path78"
             style="fill:#134577;fill-opacity:1;fill-rule:nonzero;stroke:none"
             d="m 0,0 c -2.856,-3.61 -5.677,-7.248 -8.037,-10.41 -0.627,-0.936 -1.217,-1.816 -1.792,-2.673 1.418,1.996 2.909,4.058 4.403,6.093 1.723,2.247 3.56,4.618 5.426,6.99" /></g><g
           transform="translate(448.9995,689.5777)"
           id="g80"><path
             id="path82"
             style="fill:#134577;fill-opacity:1;fill-rule:nonzero;stroke:none"
             d="m 0,0 c -3.574,1.989 -7.383,3.602 -11.348,4.889 -33.879,-3.61 -67.11,-11.282 -96.775,-21.083 -1.506,-2.552 -2.023,-5.099 -1.335,-7.528 -22.448,-11.402 -37.892,-13.32 -43.334,-9.994 -25.431,-11.776 -45.487,-24.671 -57.024,-36.635 -14.702,-18.89 3.416,-18.405 11.889,-17.32 13.646,1.748 27.952,8.063 35.638,11.456 -6.735,-8.661 -12.998,-17.71 -18.807,-27.065 56.04,26.267 131.768,47.039 204.985,52.582 C 26.935,-29.148 20.088,-11.184 0,0" /></g><g
           transform="translate(203.0762,566.3399)"
           id="g84"><path
             id="path86"
             style="fill:#134577;fill-opacity:1;fill-rule:nonzero;stroke:none"
             d="M 0,0 C -0.335,-0.659 -0.676,-1.341 -1.017,-2.023 2.682,4.833 5.174,9.395 7.606,13.526 5.202,9.57 2.955,5.56 0,0" /></g><g
           transform="translate(678.773,592.7608)"
           id="g88"><path
             id="path90"
             style="fill:#134577;fill-opacity:1;fill-rule:nonzero;stroke:none"
             d="M 0,0 C -0.955,1.377 -1.995,2.864 -3.153,4.515 -3.181,4.553 -3.208,4.593 -3.237,4.631 1.553,-2.673 4.995,-7.922 7.707,-12.183 5.125,-7.834 2.518,-3.678 0,0" /></g><g
           transform="translate(190.0742,538.1651)"
           id="g92"><path
             id="path94"
             style="fill:#134577;fill-opacity:1;fill-rule:nonzero;stroke:none"
             d="m 0,0 c -1.577,-4.069 -3.137,-8.462 -4.433,-12.137 -0.478,-1.423 -0.989,-2.958 -1.554,-4.668 3.45,9.579 5.588,15.51 7.381,20.137 C 0.893,2.164 0.435,1.066 0,0" /></g><g
           transform="translate(648.0474,630.2071)"
           id="g96"><path
             id="path98"
             style="fill:#134577;fill-opacity:1;fill-rule:nonzero;stroke:none"
             d="M 0,0 C -0.635,0.641 -1.302,1.31 -2.003,2.015 -2.629,2.636 -3.272,3.269 -3.934,3.919 2.449,-2.837 6.862,-7.516 10.323,-11.315 6.949,-7.512 3.269,-3.336 0,0" /></g><g
           transform="translate(613.147,660.4185)"
           id="g100"><path
             id="path102"
             style="fill:#134577;fill-opacity:1;fill-rule:nonzero;stroke:none"
             d="M 0,0 C -0.964,0.694 -1.979,1.418 -3.076,2.19 -3.886,2.75 -4.719,3.321 -5.588,3.901 2.229,-1.897 7.411,-5.753 11.579,-9.021 7.875,-6.066 3.733,-2.745 0,0" /></g></g></g><g
       id="g104"><g
         id="g106"><g
           id="g112"><g
             id="g114"><path
               id="path126"
               style="fill:url(#linearGradient124);stroke:none"
               d="m 705.179,353.614 c -12.505,-23.74 -29.385,-46.573 -48.755,-67.735 v 0 C 632.47,259.707 604.735,236.093 576.822,216.463 v 0 c -15.917,-11.195 -31.883,-21.089 -47.24,-29.428 v 0 c 0.157,0.186 0.301,0.357 0.472,0.551 v 0 c -31.311,-17.081 -63.895,-25.888 -95.722,-26.922 v 0 -2 c 1.415,-0.985 5.395,-0.54 8.671,-0.88 v 0 c 1.45,-0.051 2.896,-0.091 4.329,-0.122 v 0 c -0.237,-0.014 -0.483,-0.037 -0.719,-0.052 v 0 c 0.34,-0.011 0.68,-0.021 1.008,-0.036 v 0 c 2.21,-0.007 4.642,0.025 7.087,0.074 v 0 c 2.334,0.021 4.659,0.056 6.784,0.123 v 0 c 0.358,0.013 0.709,0.028 1.074,0.043 v 0 c 0.2,0.006 0.408,0.012 0.601,0.014 v 0 c 4.026,0.181 9.224,0.583 13.519,0.955 v 0 c 0.173,0.022 0.35,0.037 0.526,0.06 v 0 c 0.836,0.064 1.594,0.135 2.317,0.201 v 0 c 3.19,0.338 6.718,0.792 9.555,1.174 v 0 c 0.493,0.073 1.02,0.147 1.568,0.225 v 0 c 0.133,0.02 0.266,0.039 0.401,0.06 v 0 c 0.035,0.005 0.062,0.012 0.098,0.014 v 0 c 3.034,0.452 6.469,1.014 10.153,1.695 v 0 c 0.402,0.08 0.824,0.164 1.268,0.254 v 0 c 0.352,0.064 0.686,0.12 1.007,0.179 v 0 c 2.531,0.492 4.998,0.998 7.234,1.498 v 0 c 0.866,0.198 1.813,0.418 2.934,0.678 v 0 c 0.114,0.027 0.213,0.048 0.326,0.074 v 0 c 0.989,0.25 2.046,0.52 3.127,0.798 v 0 c 2.797,0.711 4.845,1.231 6.46,1.651 v 0 c 2.623,0.712 5.111,1.417 7.556,2.16 v 0 c 0.59,0.183 1.233,0.382 1.961,0.609 v 0 c 0.737,0.231 1.389,0.432 1.983,0.621 v 0 c 1.702,0.542 3.534,1.152 5.421,1.801 v 0 c 0.432,0.152 0.899,0.32 1.402,0.503 v 0 c 0.243,0.082 0.472,0.159 0.696,0.234 v 0 c 2.661,0.938 5.232,1.886 7.713,2.841 v 0 c 0.067,0.027 0.126,0.049 0.195,0.075 v 0 c 3.519,1.359 4.868,1.89 8.204,3.339 v 0 c 0.526,0.219 1.013,0.42 1.457,0.606 v 0 c 1.91,0.824 3.747,1.636 5.505,2.441 v 0 c 0.35,0.163 0.713,0.329 1.112,0.518 v 0 l 5.756,2.747 c 35.65,17.66 67.895,43.967 95.911,78.172 v 0 c 1.423,1.796 2.792,3.563 4.102,5.287 v 0 c 0.27,0.356 0.551,0.717 0.813,1.069 v 0 l 2.132,2.89 c 2.231,3.234 4.058,5.916 5.666,8.324 v 0 c 1.706,2.616 3.407,5.307 5.019,7.909 v 0 c 0.588,0.947 1.161,1.874 1.718,2.787 v 0 c 2.773,4.726 5.65,10.054 10.333,18.74 v 0 c 4.372,8.801 7.876,17.13 10.807,24.949 v 0 c 4.123,10.993 7.1,20.951 9.69,29.687 v 0 c 0.107,0.411 0.213,0.819 0.319,1.23 v 0 c 1.382,5.337 2.614,10.627 3.484,15.28 v 0 c 0.236,1.263 0.474,2.599 0.709,3.941 v 0 c 0.571,3.331 1.068,6.629 1.501,9.871 v 0 c 1.617,12.111 2.368,23.339 2.878,31.942 v 0 c 0.002,0.17 0.005,0.34 0.006,0.514 v 0 c -1.574,-25.353 -9.756,-50.561 -22.53,-74.817" /></g></g></g></g><g
       id="g128"><g
         id="g130"><g
           id="g136"><g
             id="g138"><path
               id="path152"
               style="fill:url(#linearGradient150);stroke:none"
               d="m 705.179,351.613 c -12.505,-23.739 -29.385,-46.572 -48.755,-67.734 v 0 C 632.47,257.707 604.735,234.094 576.822,214.463 v 0 c -15.917,-11.195 -31.883,-21.089 -47.24,-29.428 v 0 c 0.157,0.186 0.301,0.357 0.472,0.551 v 0 c -31.311,-17.081 -63.895,-25.889 -95.722,-26.922 v 0 c 2.181,-1.247 4.305,-2.427 8.671,-2.879 v 0 c 1.45,-0.052 2.896,-0.091 4.329,-0.123 v 0 c -0.237,-0.013 -0.483,-0.037 -0.719,-0.053 v 0 c 0.34,-0.011 0.68,-0.02 1.008,-0.035 v 0 c 2.21,-0.006 4.642,0.024 7.087,0.075 v 0 c 2.334,0.02 4.659,0.055 6.784,0.121 v 0 c 0.358,0.015 0.709,0.029 1.074,0.044 v 0 c 0.2,0.006 0.408,0.012 0.601,0.014 v 0 c 4.026,0.182 9.224,0.583 13.519,0.956 v 0 c 0.173,0.02 0.35,0.036 0.526,0.059 v 0 c 0.836,0.063 1.594,0.135 2.317,0.201 v 0 c 3.19,0.338 6.718,0.792 9.555,1.174 v 0 c 0.493,0.073 1.02,0.146 1.568,0.225 v 0 c 0.133,0.02 0.266,0.039 0.401,0.06 v 0 c 0.035,0.005 0.062,0.011 0.098,0.014 v 0 c 3.034,0.453 6.469,1.014 10.153,1.695 v 0 c 0.402,0.08 0.824,0.164 1.268,0.253 v 0 c 0.352,0.065 0.686,0.121 1.007,0.18 v 0 c 2.531,0.492 4.998,0.998 7.234,1.497 v 0 c 0.866,0.199 1.813,0.419 2.934,0.678 v 0 c 0.114,0.028 0.213,0.049 0.326,0.075 v 0 c 0.989,0.251 2.046,0.52 3.127,0.797 v 0 c 2.797,0.711 4.845,1.232 6.46,1.651 v 0 c 2.623,0.712 5.111,1.418 7.556,2.16 v 0 c 0.59,0.183 1.233,0.383 1.961,0.611 v 0 c 0.737,0.23 1.389,0.431 1.983,0.621 v 0 c 1.702,0.541 3.534,1.152 5.421,1.799 v 0 c 0.432,0.154 0.899,0.32 1.402,0.504 v 0 c 0.243,0.082 0.472,0.159 0.696,0.235 v 0 c 2.661,0.937 5.232,1.885 7.713,2.84 v 0 c 0.067,0.027 0.126,0.049 0.195,0.076 v 0 c 3.519,1.358 4.868,1.888 8.204,3.339 v 0 c 0.526,0.218 1.013,0.419 1.457,0.604 v 0 c 1.91,0.825 3.747,1.638 5.505,2.442 v 0 c 0.35,0.163 0.713,0.33 1.112,0.519 v 0 l 5.756,2.746 c 35.65,17.66 67.895,43.966 95.911,78.173 v 0 c 1.423,1.795 2.792,3.561 4.102,5.286 v 0 c 0.27,0.356 0.551,0.718 0.813,1.069 v 0 l 2.132,2.89 c 2.231,3.234 4.058,5.916 5.666,8.324 v 0 c 1.706,2.615 3.407,5.308 5.019,7.909 v 0 c 0.588,0.947 1.161,1.874 1.718,2.786 v 0 c 2.773,4.727 5.65,10.055 10.333,18.742 v 0 c 4.372,8.799 7.876,17.129 10.807,24.949 v 0 c 4.123,10.992 7.1,20.95 9.69,29.686 v 0 c 0.107,0.411 0.213,0.819 0.319,1.23 v 0 c 1.382,5.336 2.614,10.628 3.484,15.28 v 0 c 0.236,1.262 0.474,2.598 0.709,3.941 v 0 c 0.571,3.331 1.068,6.629 1.501,9.871 v 0 c 1.617,12.111 2.368,23.339 2.878,31.942 v 0 c 0.002,0.169 0.005,0.34 0.006,0.514 v 0 c -1.574,-25.354 -9.756,-50.561 -22.53,-74.818" /></g></g></g></g><g
       id="g154"><g
         id="g156"><g
           id="g162"><g
             id="g164"><path
               id="path176"
               style="fill:url(#linearGradient174);stroke:none"
               d="m 607.126,666.61 c 4.194,-3.064 9.05,-6.853 12.54,-10.132 v 0 c 14.392,-13.518 23.815,-28.682 28.995,-45.014 v 0 c 6.9,-21.759 6.254,-45.596 -0.279,-70.41 v 0 c -8.122,-30.833 -25.328,-63.167 -48.431,-94.881 v 0 c -22.661,-31.106 -50.987,-61.61 -81.977,-89.511 v 0 C 440.141,286.592 345.542,232.96 281.909,227.558 v 0 c -13.288,0.192 -16.169,1.284 -21.414,4.602 v 0 c 1.129,-1.023 2.26,-2.043 3.391,-3.061 v 0 c 0.226,-0.199 0.452,-0.405 0.678,-0.609 v 0 c 3.057,-2.585 6.322,-5.286 9.634,-7.968 v 0 c 4.69,-3.794 9.403,-7.502 13.61,-10.735 v 0 c 0.374,-0.286 0.77,-0.593 1.136,-0.875 v 0 c 2.582,-1.772 4.829,-3.302 6.874,-4.668 v 0 c 2.566,-1.614 5.314,-3.32 8.194,-5.07 v 0 c 3.112,-1.889 6.349,-3.807 9.612,-5.677 v 0 c 4.077,-2.199 8.976,-4.734 15.661,-8.186 v 0 c 0.668,-0.345 1.352,-0.697 2.055,-1.059 v 0 c 1.048,-0.472 2.142,-0.955 3.268,-1.444 v 0 c 2.995,-1.302 6.251,-2.652 9.522,-3.977 v 0 c 2.633,-1.067 5.255,-2.112 7.766,-3.104 v 0 c 1.554,-0.604 3.086,-1.192 4.563,-1.744 v 0 c 0.362,-0.137 0.706,-0.264 1.062,-0.398 v 0 l 0.768,-0.197 c 0.599,-0.247 1.209,-0.504 1.806,-0.752 v 0 c 34.022,-4.809 116.872,32.274 193.572,90.876 v 0 c 28.032,21.415 55.239,45.695 78.941,71.865 v 0 c 20.239,22.342 37.915,46.058 51.373,70.522 v 0 c 15.264,27.742 25.097,56.45 27.058,85.224 v 0 c 1.482,21.753 -1.527,43.541 -10.09,64.978 v 0 l -0.206,0.433 c -3.098,6.377 -7.375,14.439 -11.168,21.088 v 0 c -0.93,1.525 -1.952,3.154 -3.095,4.956 v 0 c -2.712,4.261 -6.155,9.509 -10.945,16.814 v 0 c -0.002,0.007 -0.006,0.012 -0.011,0.019 v 0 c -2.985,4.096 -5.268,7.198 -7.404,9.958 v 0 c -2.195,2.749 -4.449,5.463 -6.581,7.981 v 0 c -0.978,1.116 -2.019,2.278 -3.168,3.542 v 0 c -3.462,3.8 -7.874,8.478 -14.257,15.234 v 0 c -0.114,0.123 -0.221,0.235 -0.338,0.358 v 0 c -3.619,3.471 -6.435,6.136 -9.026,8.483 v 0 c -3.031,2.64 -6.149,5.241 -8.984,7.611 v 0 c -0.34,0.27 -0.685,0.544 -1.04,0.82 v 0 c -4.168,3.267 -9.35,7.124 -17.167,12.921 v 0 c -0.435,0.324 -0.87,0.647 -1.323,0.981 v 0 l -1.225,0.835 c 0.676,-0.479 1.386,-0.995 2.115,-1.525" /></g></g></g></g><g
       id="g178"><g
         id="g180"><g
           id="g186"><g
             id="g188"><path
               id="path202"
               style="fill:url(#linearGradient200);stroke:none"
               d="m 607.126,664.609 c 4.194,-3.063 9.05,-6.853 12.54,-10.132 v 0 c 14.392,-13.517 23.815,-28.681 28.995,-45.013 v 0 c 6.9,-21.759 6.254,-45.596 -0.279,-70.411 v 0 c -8.122,-30.832 -25.328,-63.166 -48.431,-94.881 v 0 c -22.661,-31.104 -50.987,-61.61 -81.977,-89.51 v 0 C 440.141,284.593 345.542,230.96 281.909,225.558 v 0 c -13.288,0.192 -16.169,1.283 -21.414,4.603 v 0 c 1.129,-1.025 2.26,-2.043 3.391,-3.062 v 0 c 0.226,-0.2 0.452,-0.405 0.678,-0.609 v 0 c 3.057,-2.584 6.322,-5.286 9.634,-7.967 v 0 c 4.69,-3.795 9.403,-7.503 13.61,-10.736 v 0 c 0.374,-0.286 0.77,-0.593 1.136,-0.876 v 0 c 2.582,-1.77 4.829,-3.3 6.874,-4.667 v 0 c 2.566,-1.614 5.314,-3.32 8.194,-5.069 v 0 c 3.112,-1.891 6.349,-3.808 9.612,-5.678 v 0 c 4.077,-2.199 8.976,-4.733 15.661,-8.187 v 0 c 0.668,-0.345 1.352,-0.695 2.055,-1.058 v 0 c 1.048,-0.472 2.142,-0.955 3.268,-1.445 v 0 c 2.995,-1.301 6.251,-2.652 9.522,-3.976 v 0 c 2.633,-1.066 5.255,-2.111 7.766,-3.104 v 0 c 1.554,-0.604 3.086,-1.192 4.563,-1.744 v 0 c 0.362,-0.137 0.706,-0.264 1.062,-0.398 v 0 l 0.768,-0.197 c 0.599,-0.248 1.209,-0.504 1.806,-0.753 v 0 c 34.022,-4.808 116.872,32.275 193.572,90.877 v 0 c 28.032,21.416 55.239,45.695 78.941,71.865 v 0 c 20.239,22.343 37.915,46.058 51.373,70.522 v 0 c 15.264,27.742 25.097,56.45 27.058,85.224 v 0 c 1.482,21.753 -1.527,43.541 -10.09,64.978 v 0 l -0.206,0.433 c -3.098,6.377 -7.375,14.438 -11.168,21.088 v 0 c -0.93,1.525 -1.952,3.154 -3.095,4.956 v 0 c -2.712,4.261 -6.155,9.51 -10.945,16.814 v 0 c -0.002,0.007 -0.006,0.013 -0.011,0.019 v 0 c -2.985,4.096 -5.268,7.198 -7.404,9.959 v 0 c -2.195,2.748 -4.449,5.462 -6.581,7.981 v 0 c -0.978,1.115 -2.019,2.278 -3.168,3.54 v 0 c -3.462,3.8 -7.874,8.479 -14.257,15.235 v 0 c -0.114,0.123 -0.221,0.235 -0.338,0.359 v 0 c -3.619,3.469 -6.435,6.135 -9.026,8.482 v 0 c -3.031,2.639 -6.149,5.241 -8.984,7.611 v 0 c -0.34,0.271 -0.685,0.543 -1.04,0.819 v 0 c -4.168,3.268 -9.35,7.125 -17.167,12.923 v 0 c -0.435,0.323 -0.87,0.645 -1.323,0.981 v 0 l -1.225,0.834 c 0.676,-0.48 1.386,-0.994 2.115,-1.526" /></g></g></g></g><g
       id="g204"><g
         id="g206"><g
           id="g212"><g
             id="g214"><path
               id="path226"
               style="fill:url(#linearGradient224);stroke:none"
               d="m 232.976,610.049 c -1.866,-2.372 -3.703,-4.742 -5.426,-6.99 v 0 c -1.494,-2.035 -2.985,-4.096 -4.402,-6.094 v 0 c -0.504,-0.711 -0.995,-1.404 -1.476,-2.094 v 0 c -3.854,-5.66 -6.397,-9.601 -8.989,-14.005 v 0 c -2.433,-4.132 -4.925,-8.693 -8.624,-15.55 v 0 c -0.587,-1.086 -1.204,-2.227 -1.856,-3.438 v 0 c -1.629,-3.323 -2.908,-5.954 -4.019,-8.329 v 0 c -1.28,-2.792 -2.541,-5.688 -3.782,-8.681 v 0 c -0.304,-0.759 -0.614,-1.542 -0.934,-2.371 v 0 c -1.793,-4.627 -3.931,-10.558 -7.381,-20.137 v 0 c -3.274,-15.069 13.513,-17.903 49.896,-8.425 v 0 c 44.363,11.668 76.277,26.691 79.691,66.931 v 0 c 0.931,10.972 0.167,44.235 -26.963,33.496 v 0 c -7.686,-3.393 -21.992,-9.708 -35.639,-11.456 v 0 c -8.473,-1.084 -26.59,-1.569 -11.889,17.321 v 0 c -2.513,-3.012 -5.378,-6.581 -8.207,-10.178" /></g></g></g></g><g
       id="g228"><g
         id="g230"><g
           id="g236"><g
             id="g238"><path
               id="path252"
               style="fill:url(#linearGradient250);stroke:none"
               d="m 230.976,609.049 c -1.866,-2.372 -3.703,-4.742 -5.426,-6.989 v 0 c -1.494,-2.036 -2.985,-4.097 -4.403,-6.094 v 0 c -0.503,-0.711 -0.993,-1.405 -1.476,-2.095 v 0 c -3.853,-5.66 -6.396,-9.601 -8.989,-14.005 v 0 c -2.432,-4.132 -4.924,-8.694 -8.623,-15.55 v 0 c -0.588,-1.086 -1.203,-2.227 -1.856,-3.438 v 0 c -1.629,-3.323 -2.908,-5.954 -4.018,-8.328 v 0 c -1.281,-2.794 -2.542,-5.689 -3.783,-8.682 v 0 c -0.305,-0.759 -0.615,-1.542 -0.934,-2.37 v 0 c -1.793,-4.628 -3.931,-10.559 -7.381,-20.138 v 0 c -3.273,-15.069 13.513,-17.903 49.896,-8.425 v 0 c 44.364,11.668 76.278,26.691 79.691,66.931 v 0 c 0.931,10.972 0.168,44.235 -26.963,33.497 v 0 c -7.686,-3.393 -21.992,-9.709 -35.639,-11.457 v 0 c -8.472,-1.084 -26.59,-1.569 -11.889,17.32 v 0 c -2.513,-3.011 -5.377,-6.58 -8.207,-10.177" /></g></g></g></g><g
       id="g254"><g
         id="g256"><g
           id="g262"><g
             id="g264"><path
               id="path276"
               style="fill:url(#linearGradient274);stroke:none"
               d="m 435.349,716.067 c -0.015,-0.002 -0.03,-0.002 -0.047,-0.004 v 0 c -0.323,-0.014 -0.628,-0.031 -0.94,-0.045 v 0 c -0.61,-0.031 -1.19,-0.061 -1.742,-0.089 v 0 c -1.713,-0.092 -3.618,-0.203 -5.544,-0.339 v 0 c -3.684,-0.275 -7.115,-0.662 -13.763,-1.476 v 0 c -1.357,-0.151 -2.684,-0.302 -3.931,-0.447 v 0 c -0.6,-0.086 -1.23,-0.176 -1.912,-0.274 v 0 c -0.063,-0.011 -0.118,-0.019 -0.184,-0.031 v 0 c -0.081,-0.01 -0.156,-0.021 -0.239,-0.032 v 0 c -4.704,-0.7 -6.927,-1.057 -11.096,-1.902 v 0 c -0.148,-0.027 -0.295,-0.052 -0.439,-0.078 v 0 c -3.104,-0.64 -6.974,-1.407 -9.944,-2.091 v 0 c -0.059,-0.013 -0.121,-0.027 -0.182,-0.041 v 0 c -0.149,-0.035 -0.323,-0.077 -0.478,-0.113 v 0 c -0.048,-0.01 -0.089,-0.019 -0.137,-0.03 v 0 c -1.849,-0.433 -3.203,-0.752 -4.46,-1.064 v 0 c -1.208,-0.31 -2.53,-0.661 -4.234,-1.12 v 0 c -0.37,-0.102 -0.765,-0.215 -1.181,-0.333 v 0 c -0.566,-0.147 -1.086,-0.285 -1.565,-0.414 v 0 c -2.171,-0.606 -5.049,-1.449 -8.098,-2.397 v 0 c -0.031,-0.012 -0.057,-0.02 -0.089,-0.03 v 0 c -2.191,-0.684 -4.402,-1.398 -6.432,-2.087 v 0 c -0.648,-0.227 -1.355,-0.479 -2.159,-0.768 v 0 c -0.265,-0.088 -0.517,-0.174 -0.758,-0.256 v 0 c -3.131,-1.122 -5.763,-2.098 -7.949,-2.932 v 0 c -0.037,-0.017 -0.071,-0.031 -0.107,-0.046 v 0 c -0.095,-0.034 -0.191,-0.071 -0.283,-0.108 v 0 c -3.328,-1.301 -4.752,-1.864 -7.616,-3.108 v 0 c -0.24,-0.097 -0.472,-0.193 -0.692,-0.285 v 0 c -2.339,-1.032 -5.245,-2.285 -7.465,-3.313 v 0 c -0.005,-0.002 -0.008,-0.004 -0.013,-0.006 v 0 c -0.008,-0.003 -0.015,-0.004 -0.02,-0.009 v 0 c -0.461,-0.211 -0.967,-0.453 -1.471,-0.692 v 0 c -0.891,-0.422 -1.762,-0.842 -2.619,-1.262 v 0 c -0.344,-0.167 -0.678,-0.33 -1.018,-0.497 v 0 c -19.627,-9.77 -30.275,-19.439 -32.163,-24.978 v 0 c -0.818,-2.397 -0.151,-4.297 1.828,-5.509 v 0 c 5.443,-3.325 20.886,-1.407 43.334,9.995 v 0 c -0.687,2.429 -0.171,4.976 1.336,7.527 v 0 c 9.651,16.363 60.089,32.989 96.775,21.084 v 0 c 3.964,-1.288 7.774,-2.9 11.347,-4.889 v 0 c 20.089,-11.184 26.935,-29.148 23.89,-50.699 v 0 c -3.881,-27.455 -23.847,-60.738 -53.069,-93.302 v 0 C 368.522,490.411 288.736,435.485 217.436,418.299 v 0 c -42.671,-8.365 -45.449,3.388 -46.635,8.41 v 0 c 0.266,-6.09 0.689,-11.878 1.238,-17.416 v 0 c 0.088,-0.849 0.175,-1.694 0.27,-2.567 v 0 c 0.018,-0.164 0.035,-0.326 0.054,-0.49 v 0 c 0.137,-1.239 0.283,-2.498 0.441,-3.788 v 0 c 1.38,-11.232 4.249,-25.557 7.383,-37.388 v 0 c 0.94,-3.399 1.924,-6.679 2.943,-9.862 v 0 c 0.097,-0.302 0.195,-0.605 0.293,-0.906 v 0 c 1.47,-4.539 3.007,-8.878 4.582,-13.059 v 0 c 3.198,-8.483 6.543,-16.322 9.768,-23.875 v 0 l 1.851,-3.82 c 6.54,-8.896 20.558,-7.552 35.4,-6.124 v 0 c -0.437,1.201 -0.849,2.415 -1.269,3.621 v 0 c 0.423,-1.164 0.847,-2.361 1.269,-3.621 v 0 c 74.3,12.341 162.014,77.625 216.586,123.969 v 0 c 5.976,5.076 11.711,10.151 17.258,15.218 v 0 c 42.475,38.805 72.322,77.175 89.427,112.285 v 0 c 14.037,28.813 19.496,55.424 16.311,78.279 v 0 c -3.201,22.974 -15.13,42.142 -35.857,55.921 v 0 c -18.35,12.202 -43.57,20.187 -75.748,22.831 v 0 c -0.307,0.016 -0.615,0.03 -0.923,0.046 v 0 c 0.146,-0.005 0.302,-0.008 0.452,-0.011 v 0 c -0.174,0.004 -0.358,0.009 -0.531,0.013 v 0 c -0.01,0 -0.016,0.002 -0.025,0.002 v 0 c -3.943,0.115 -8.442,0.176 -12.964,0.192 v 0 c -1.245,0.007 -2.491,0.011 -3.724,0.011 v 0 c -3.502,0 -6.906,-0.031 -9.937,-0.103 m 27.323,-0.118 c -0.046,0.001 -0.094,0.002 -0.142,0.003 v 0 c 0.048,-10e-4 0.096,-0.002 0.142,-0.003" /></g></g></g></g><g
       id="g278"><g
         id="g280"><g
           id="g286"><g
             id="g288"><path
               id="path302"
               style="fill:url(#linearGradient300);stroke:none"
               d="m 435.349,714.067 c -0.015,-0.002 -0.03,-0.002 -0.047,-0.003 v 0 c -0.323,-0.015 -0.628,-0.032 -0.94,-0.046 v 0 c -0.61,-0.031 -1.19,-0.061 -1.742,-0.088 v 0 c -1.713,-0.092 -3.618,-0.205 -5.544,-0.34 v 0 c -3.684,-0.275 -7.115,-0.661 -13.763,-1.476 v 0 c -1.357,-0.152 -2.684,-0.301 -3.931,-0.448 v 0 c -0.6,-0.085 -1.23,-0.175 -1.912,-0.273 v 0 c -0.063,-0.01 -0.118,-0.019 -0.184,-0.031 v 0 c -0.081,-0.01 -0.156,-0.021 -0.239,-0.032 v 0 c -4.704,-0.7 -6.927,-1.056 -11.096,-1.902 v 0 c -0.148,-0.026 -0.295,-0.052 -0.439,-0.078 v 0 c -3.104,-0.641 -6.974,-1.407 -9.944,-2.09 v 0 c -0.059,-0.015 -0.121,-0.028 -0.182,-0.042 v 0 c -0.149,-0.036 -0.323,-0.077 -0.478,-0.113 v 0 c -0.048,-0.011 -0.089,-0.02 -0.137,-0.03 v 0 c -1.849,-0.433 -3.203,-0.753 -4.46,-1.064 v 0 c -1.208,-0.309 -2.53,-0.66 -4.234,-1.12 v 0 c -0.37,-0.103 -0.765,-0.214 -1.181,-0.332 v 0 c -0.566,-0.149 -1.086,-0.286 -1.565,-0.414 v 0 c -2.171,-0.608 -5.049,-1.45 -8.098,-2.399 v 0 c -0.031,-0.011 -0.057,-0.019 -0.089,-0.03 v 0 c -2.191,-0.683 -4.402,-1.396 -6.432,-2.086 v 0 c -0.648,-0.226 -1.355,-0.479 -2.159,-0.767 v 0 c -0.265,-0.089 -0.517,-0.176 -0.758,-0.258 v 0 c -3.131,-1.121 -5.763,-2.098 -7.949,-2.932 v 0 c -0.037,-0.015 -0.071,-0.03 -0.107,-0.045 v 0 c -0.095,-0.035 -0.191,-0.071 -0.283,-0.108 v 0 c -3.328,-1.301 -4.752,-1.864 -7.616,-3.108 v 0 c -0.24,-0.097 -0.472,-0.192 -0.692,-0.285 v 0 c -2.339,-1.031 -5.245,-2.285 -7.465,-3.313 v 0 c -0.005,-0.002 -0.008,-0.004 -0.013,-0.005 v 0 c -0.008,-0.004 -0.015,-0.006 -0.02,-0.009 v 0 c -0.461,-0.212 -0.967,-0.454 -1.471,-0.693 v 0 c -0.891,-0.422 -1.762,-0.843 -2.619,-1.262 v 0 c -0.344,-0.167 -0.678,-0.329 -1.018,-0.497 v 0 c -19.627,-9.77 -30.275,-19.439 -32.163,-24.978 v 0 c -0.818,-2.398 -0.151,-4.297 1.828,-5.508 v 0 c 5.443,-3.326 20.886,-1.408 43.334,9.993 v 0 c -0.687,2.43 -0.171,4.976 1.336,7.529 v 0 c 9.651,16.362 60.089,32.988 96.775,21.083 v 0 c 3.964,-1.288 7.774,-2.9 11.347,-4.89 v 0 c 20.089,-11.183 26.935,-29.147 23.89,-50.698 v 0 c -3.881,-27.456 -23.847,-60.738 -53.069,-93.302 v 0 C 368.522,488.411 288.736,433.485 217.436,416.299 v 0 c -42.671,-8.365 -45.449,3.387 -46.635,8.41 v 0 c 0.266,-6.091 0.689,-11.878 1.238,-17.416 v 0 c 0.088,-0.849 0.175,-1.694 0.27,-2.567 v 0 c 0.018,-0.163 0.035,-0.326 0.054,-0.491 v 0 c 0.137,-1.238 0.283,-2.497 0.441,-3.786 v 0 c 1.38,-11.232 4.249,-25.558 7.383,-37.389 v 0 c 0.94,-3.398 1.924,-6.679 2.943,-9.863 v 0 c 0.097,-0.301 0.195,-0.604 0.293,-0.905 v 0 c 1.47,-4.538 3.007,-8.878 4.582,-13.059 v 0 c 3.198,-8.483 6.543,-16.322 9.768,-23.875 v 0 l 1.851,-3.82 c 6.54,-8.897 20.558,-7.551 35.4,-6.124 v 0 c -0.437,1.201 -0.849,2.414 -1.269,3.621 v 0 c 0.423,-1.164 0.847,-2.361 1.269,-3.621 v 0 c 74.3,12.341 162.014,77.625 216.586,123.97 v 0 c 5.976,5.075 11.711,10.15 17.258,15.217 v 0 c 42.475,38.805 72.322,77.174 89.427,112.284 v 0 c 14.037,28.814 19.496,55.425 16.311,78.28 v 0 c -3.201,22.974 -15.13,42.143 -35.857,55.922 v 0 c -18.35,12.201 -43.57,20.187 -75.748,22.83 v 0 c -0.307,0.015 -0.615,0.031 -0.923,0.046 v 0 c 0.139,-0.004 0.288,-0.007 0.432,-0.01 v 0 c -0.168,0.004 -0.345,0.008 -0.511,0.013 v 0 c -0.01,0 -0.016,0 -0.025,0 v 0 c -3.943,0.116 -8.442,0.178 -12.964,0.193 v 0 c -1.239,0.007 -2.478,0.011 -3.705,0.011 v 0 c -3.509,0 -6.92,-0.031 -9.956,-0.103 m 27.323,-0.119 c -0.053,0.002 -0.107,0.003 -0.162,0.005 v 0 c 0.055,-0.002 0.109,-0.003 0.162,-0.005" /></g></g></g></g></g></svg>